<svg width="241" height="241" viewBox="0 0 241 241" fill="none" xmlns="http://www.w3.org/2000/svg">
<circle cx="120.218" cy="120.218" r="113.77" transform="rotate(-0.457324 120.218 120.218)" fill="#984FBA" stroke="black" stroke-width="11"/>
<path d="M169 147C159.667 156.667 131 173.7 91 164.5" stroke="black" stroke-width="8" stroke-linecap="round"/>
<path d="M121 186.5C127 187.5 137 185.5 142 182" stroke="black" stroke-width="8" stroke-linecap="round"/>
<path d="M113.954 97.5C113.954 102.95 112.764 108.346 110.452 113.381C108.141 118.416 104.752 122.991 100.481 126.845C96.2093 130.699 91.1383 133.755 85.5573 135.841C79.9763 137.927 73.9947 139 67.9539 139C61.913 139 55.9314 137.927 50.3504 135.841C44.7694 133.755 39.6984 130.699 35.4269 126.845C31.1554 122.991 27.7671 118.416 25.4554 113.381C23.1437 108.346 21.9539 102.95 21.9539 97.5L67.9539 97.5H113.954Z" fill="black"/>
<path d="M220.954 97.5C220.954 102.95 219.738 108.346 217.376 113.381C215.014 118.416 211.552 122.991 207.188 126.845C202.824 130.699 197.642 133.755 191.94 135.841C186.238 137.927 180.126 139 173.954 139C167.782 139 161.67 137.927 155.968 135.841C150.265 133.755 145.084 130.699 140.72 126.845C136.355 122.991 132.893 118.416 130.532 113.381C128.17 108.346 126.954 102.95 126.954 97.5L173.954 97.5H220.954Z" fill="black"/>
<rect x="9" y="89" width="222" height="11" fill="black"/>
<path d="M158.5 123.58C151.939 120.011 146.917 114.556 144.25 108.102M52.3706 123.579C45.8097 120.01 40.7875 114.555 38.1204 108.101" stroke="white" stroke-width="8" stroke-linecap="round" stroke-linejoin="round"/>
</svg>
